<mxfile host="app.diagrams.net" modified="2025-03-31T07:30:33.962Z" agent="Mozilla/5.0 (Windows NT 10.0; Win64; x64) AppleWebKit/537.36 (KHTML, like Gecko) Chrome/134.0.0.0 Safari/537.36" version="24.2.3" etag="cfjYp-owIszXKHq2WXu3" type="github">
  <diagram name="第 1 页" id="3UdImlGmOW0Sq_YuJuoQ">
    <mxGraphModel>
      <root>
        <mxCell id="0" />
        <mxCell id="1" parent="0" />
      </root>
    </mxGraphModel>
  </diagram>
</mxfile>
